# xmcd CD database file
#
# Track frame offsets:
#	182
#	11385
#	23287
#	33655
#	49215
#	62995
#	74872
#	88867
#	98695
#	115610
#
# Disc length: 1697 seconds
#
# Revision: 0
# Processed by: cddbd v1.5.1PL0 Copyright (c) Steve Scherf et al.
# Submitted via: CDex 1.40Release
#
DISCID=7f069f0a
DTITLE=CONWAY TWITTY - THE FINAL RECORDINGS OF HIS GREATES HITS VOL 2
DYEAR=1993
DGENRE=Country
TTITLE0=IT'S ONLY MAKE BELIEVE
TTITLE1=LINDA ON MY MIND
TTITLE2=(I CAN'T BELIEVE) SHE GIVES IT ALL TO ME
TTITLE3=TOUCH THE HAND
TTITLE4=BABY'S GONE
TTITLE5=SHE NEEDS SOMEONE TO HOLD HER (WHEN SHE CRIES)
TTITLE6=FIFTEEN YEARS AGO
TTITLE7=I'LL TRY
TTITLE8=DON'T CRY JONI
TTITLE9=I'M NOT THROUGH LOVING YOU YET
EXTD=YEAR: 1993 ID3G: 2
EXTT0=
EXTT1=
EXTT2=
EXTT3=
EXTT4=
EXTT5=
EXTT6=
EXTT7=
EXTT8=
EXTT9=
PLAYORDER=
